<svg id="Layer_1" height="512" viewBox="0 0 512 512" width="512" xmlns="http://www.w3.org/2000/svg" data-name="Layer 1"><path d="m360.24 132.56a113.61 113.61 0 0 0 -76.03-4.53l-50.58 13.27-17.93-2.25-38.72-11.02a113.614 113.614 0 0 0 -76.03 4.53c-31.39 13.54-63.84 44.49-61.29 114.82 3.74 103.37 71.54 167.93 106.5 184.79 11.55 5.57 21.1 8.37 32.94 8.94 10.36.51 23.77-1.99 36.24-4.69a58.536 58.536 0 0 1 16.58-1.42l185.82-229.58c-10.23-44.23-35.11-63.2-57.5-72.86z" fill="#d15551"/><path d="m219.89 114.13c-.72 3.26-1.36 6.49-1.93 9.65-55.25-4.33-101.28-36.46-145.99-13.27-33.03 17.13-47.77 13.83-53.22 10.94a3.265 3.265 0 0 1 -1.34-4.47c87.72-158.71 206.26-17.36 206.26-17.36-1.47 4.85-2.72 9.72-3.78 14.51z" fill="#4ca987"/><path d="m323.03 403.53c-.45 1.59-11.6 40.28-46.59 46.03-17.06 2.8-32.09-3.05-44.52-14.56-31.72-29.36-46.53-95.54-35.19-148.44 9.67-45.13 44.25-79.01 74.65-88.25 8.18-2.5 16.05-3.21 23.06-1.87 29.21 5.56 43.74 26.89 50.94 47.53v.01a134.454 134.454 0 0 1 7.03 43.69 151.3 151.3 0 0 1 13.97-36.2l.09-.18c12.85-23.27 35.63-46.99 72.91-34.82a47.1 47.1 0 0 1 7.1 3.02.924.924 0 0 1 .09.05c30.46 16.01 57.81 68.85 45.34 123.55-17.28 75.83-93.38 153.93-146.02 118.45-30.34-20.45-23.18-56.47-22.86-58.01z" fill="#f7e8a9"/><path d="m446.48 219.49a47.1 47.1 0 0 0 -7.1-3.02c-37.28-12.17-60.06 11.55-72.91 34.82 4.24-8.48 3.38-31.85 7.74-46.21.82-2.71 2.44-7.58 4.33-13.11a259.9 259.9 0 0 1 39.2 13.45 295.861 295.861 0 0 1 28.74 14.07z" fill="#fb6771"/><path d="m378.54 191.97c-1.89 5.53-3.51 10.4-4.33 13.11-4.36 14.36-3.5 37.73-7.74 46.21l-.09.18a151.3 151.3 0 0 0 -13.97 36.2 134.454 134.454 0 0 0 -7.03-43.69v-.01c3.25-6.92 7.54-16.8 12.28-29.58 4.5-12.16 6.41-16.47 8.76-23.85 2.13-6.66 4.61-15.82 9.71-35.51l12.97 6.51s-6.03 17.13-10.56 30.43z" fill="#7c6147"/><path d="m366.42 190.54c-2.35 7.38-4.26 11.69-8.76 23.85-4.74 12.78-9.03 22.66-12.28 29.58-7.2-20.64-21.73-41.97-50.94-47.53-7.01-1.34-14.88-.63-23.06 1.87v-.01c28.38-9.32 40.86-10.83 95.04-7.76z" fill="#fb6771"/><path d="m364.91 328.62s14.23 34.95-4.33 33.61c-19.76-1.43 4.33-33.61 4.33-33.61z" fill="#6f624b"/><path d="m323.06 319.81s-1.16 40.13-17.54 29.03c-15.39-10.43 17.54-29.03 17.54-29.03z" fill="#6f624b"/><path d="m69.66 247.38c-2.55-70.33 29.9-101.28 61.29-114.82a110.151 110.151 0 0 1 29.116-8 112.384 112.384 0 0 0 -59.116 8c-31.39 13.54-63.84 44.49-61.29 114.82 3.74 103.37 71.54 167.93 106.5 184.79 11.55 5.57 21.1 8.37 32.94 8.94a96.5 96.5 0 0 0 18.71-1.351 88.257 88.257 0 0 1 -21.65-7.589c-34.96-16.86-102.76-81.42-106.5-184.79z" fill="#a84545"/><path d="m226.73 286.56c9.67-45.13 44.25-79.01 74.65-88.25.1-.03.193-.052.291-.081a68.833 68.833 0 0 0 -7.231-1.789c-7.01-1.34-14.88-.63-23.06 1.87-30.4 9.24-64.98 43.12-74.65 88.25-11.34 52.9 3.47 119.08 35.19 148.44 12.43 11.51 27.46 17.36 44.52 14.56a50.259 50.259 0 0 0 6.875-1.644 57.62 57.62 0 0 1 -21.395-12.916c-31.72-29.36-46.53-95.54-35.19-148.44z" fill="#d8ca91"/><path d="m219.888 120.13a5.97 5.97 0 0 1 -3.406-1.065c-54.265-37.509-99.662-47.743-138.782-31.287a6 6 0 1 1 -4.653-11.062c18.812-7.916 38.353-10.281 59.722-7.234 27.655 3.941 58.116 17.3 90.536 39.712a6 6 0 0 1 -3.417 10.936z" fill="#3f896b"/><path d="m52.114 100.987a6 6 0 0 1 -3.253-11.046c2.817-1.812 6.132-3.925 9.841-6.06a6 6 0 0 1 5.987 10.4c-3.471 2-6.638 4.016-9.333 5.75a5.97 5.97 0 0 1 -3.242.956z" fill="#3f896b"/><path d="m373.482 383.072a6 6 0 0 1 -3.932-10.534c8.314-7.2 12.757-15.249 13.2-23.908.812-15.658-11.439-28.915-11.563-29.047a6 6 0 0 1 8.72-8.244c.648.684 15.855 16.978 14.833 37.8-.593 12.088-6.426 23.011-17.337 32.466a5.974 5.974 0 0 1 -3.921 1.467z" fill="#c6ba87"/><path d="m286.155 358.5a6 6 0 0 1 -5.889-4.892c-2.662-14.138-.447-26.293 6.582-36.127 12.15-17 34.256-20.371 35.191-20.506a6 6 0 0 1 1.731 11.874c-.276.043-18.115 2.884-27.2 15.673-5.018 7.06-6.534 16.1-4.507 26.867a6 6 0 0 1 -4.787 7.006 6.074 6.074 0 0 1 -1.121.105z" fill="#c6ba87"/><path d="m76.535 271.492a6 6 0 0 1 -5.954-5.328c-.467-4.134-.816-8.379-1.038-12.618a6 6 0 0 1 11.984-.628c.209 4 .538 8 .978 11.9a6 6 0 0 1 -5.29 6.635 6.241 6.241 0 0 1 -.68.039z" fill="#f4f8fc"/><path d="m113.3 361.9a5.977 5.977 0 0 1 -4.111-1.631c-1.088-1.023-26.749-25.655-36.384-76.458a6 6 0 0 1 11.79-2.236c8.916 47.013 32.58 69.732 32.818 69.956a6 6 0 0 1 -4.113 10.369z" fill="#f4f8fc"/><path d="m217.96 123.78c.57-3.16 1.21-6.39 1.93-9.65 1.06-4.79 2.31-9.66 3.78-14.51 5.75-19.02 14.84-37.75 29.22-50.14.2.46 6.76 15.68 22.69 12.51 0 0-34.58 28.76-41.95 79.31a133.4 133.4 0 0 0 -.74 32.19 27.6 27.6 0 0 1 -3.88.06s-6.73.69-15.2-3.65a252.491 252.491 0 0 1 1.89-30.85c.57-4.79 1.31-9.93 2.26-15.27z" fill="#8c6238"/><path d="m230.351 179.592c-.565 0-1.012-.014-1.326-.028-3.009.141-16.4 0-29.211-12.5-9.24-9.009-22.955-3.1-23.534-2.847a6 6 0 0 1 -4.927-10.942c.878-.4 21.686-9.577 36.838 5.2 10.1 9.847 20.11 9.122 20.209 9.111a6.009 6.009 0 0 1 1.106-.011c.1.01 13.323.818 23.5-9.1 15.152-14.774 35.96-5.6 36.838-5.2a6 6 0 0 1 -4.933 10.939c-.663-.292-14.317-6.131-23.528 2.85a45.257 45.257 0 0 1 -31.032 12.528z" fill="#893e3e"/><path d="m268.42 46.08c4.58 1.86 8.79 6.15 7.16 15.91-15.93 3.17-22.49-12.05-22.69-12.51q.66-.585 1.35-1.14a14.122 14.122 0 0 1 14.18-2.26z" fill="#b27538"/></svg>