<?xml version="1.0" encoding="iso-8859-1"?>
<!-- Generator: Adobe Illustrator 19.0.0, SVG Export Plug-In . SVG Version: 6.00 Build 0)  -->
<svg version="1.1" id="Capa_1" xmlns="http://www.w3.org/2000/svg" xmlns:xlink="http://www.w3.org/1999/xlink" x="0px" y="0px"
	 viewBox="0 0 511.999 511.999" style="enable-background:new 0 0 511.999 511.999;" xml:space="preserve">
<linearGradient id="SVGID_1_" gradientUnits="userSpaceOnUse" x1="331.933" y1="277.6376" x2="539.063" y2="69.3476" gradientTransform="matrix(1.0039 0 0 -1.0039 0.1922 516.5607)">
	<stop  offset="0" style="stop-color:#FF931E"/>
	<stop  offset="0.569" style="stop-color:#FF760E"/>
	<stop  offset="1" style="stop-color:#FF5D00"/>
</linearGradient>
<path style="fill:url(#SVGID_1_);" d="M511.999,245.121c-0.263,94.653-77.194,165.924-171.846,165.661
	C245.5,410.52,168.967,338.821,169.23,244.168c0.263-94.653,77.189-164.175,171.841-163.912
	C435.725,80.519,512.263,150.469,511.999,245.121z"/>
<linearGradient id="SVGID_2_" gradientUnits="userSpaceOnUse" x1="378.4596" y1="163.2642" x2="160.7596" y2="380.9742" gradientTransform="matrix(1.0039 0 0 -1.0039 0.1922 516.5607)">
	<stop  offset="0" style="stop-color:#FF931E;stop-opacity:0"/>
	<stop  offset="1" style="stop-color:#FF5D00"/>
</linearGradient>
<path style="fill:url(#SVGID_2_);" d="M501.628,302.851L286.895,88.118c-68.17,20.688-117.455,80.323-117.666,156.051
	c-0.263,94.653,76.269,166.351,170.923,166.615C414.301,410.989,477.568,367.294,501.628,302.851z"/>
<linearGradient id="SVGID_3_" gradientUnits="userSpaceOnUse" x1="262.91" y1="448.0012" x2="125.01" y2="310.0912" gradientTransform="matrix(1.0039 0 0 -1.0039 0.1922 516.5607)">
	<stop  offset="0" style="stop-color:#9EB644"/>
	<stop  offset="1" style="stop-color:#738611"/>
</linearGradient>
<path style="fill:url(#SVGID_3_);" d="M281.107,38.271c-29.016,0.299-104.811,10.364-107.321,107.07
	c-0.171,6.588,5.223,11.982,11.811,11.811c96.706-2.511,106.77-78.305,107.07-107.321C292.732,43.429,287.509,38.205,281.107,38.271
	z"/>
<linearGradient id="SVGID_4_" gradientUnits="userSpaceOnUse" x1="258.539" y1="390.8136" x2="155.519" y2="493.8356" gradientTransform="matrix(1.0039 0 0 -1.0039 0.1922 516.5607)">
	<stop  offset="0" style="stop-color:#738611;stop-opacity:0"/>
	<stop  offset="1" style="stop-color:#738611"/>
</linearGradient>
<path style="fill:url(#SVGID_4_);" d="M289.359,41.677L177.208,153.828c2.147,2.121,5.12,3.409,8.389,3.324
	c96.706-2.511,106.77-78.305,107.07-107.321C292.699,46.654,291.428,43.771,289.359,41.677z"/>
<linearGradient id="SVGID_5_" gradientUnits="userSpaceOnUse" x1="112.0333" y1="404.0085" x2="180.2573" y2="404.0085" gradientTransform="matrix(1.0039 0 0 -1.0039 0.1922 516.5607)">
	<stop  offset="0" style="stop-color:#654E48"/>
	<stop  offset="1" style="stop-color:#503837"/>
</linearGradient>
<path style="fill:url(#SVGID_5_);" d="M181.156,183.213c-3.491,0.294-7.092,0.453-10.755,0.453c-2.584,0-5.12-0.073-7.619-0.233
	c-0.306-17.748-2.254-39.527-8.109-61.306c-3.479-12.972-8.354-25.955-15.103-38.094c-11.417-20.517-22.967-29.018-23.089-29.104
	c-4.091-2.965-5.047-8.685-2.119-12.8c2.939-4.103,8.611-5.096,12.739-2.193c1.679,1.176,31.847,23.126,46.374,81.247
	C177.824,138.516,180.765,159.046,181.156,183.213z"/>
<linearGradient id="SVGID_6_" gradientUnits="userSpaceOnUse" x1="163.3639" y1="214.9385" x2="370.4939" y2="6.6485" gradientTransform="matrix(1.0039 0 0 -1.0039 0.1922 516.5607)">
	<stop  offset="0" style="stop-color:#FF931E"/>
	<stop  offset="0.569" style="stop-color:#FF760E"/>
	<stop  offset="1" style="stop-color:#FF5D00"/>
</linearGradient>
<path style="fill:url(#SVGID_6_);" d="M342.769,308.067c-0.263,94.653-77.194,165.924-171.846,165.661
	C76.27,473.465-0.263,401.766,0.001,307.114s77.189-164.175,171.841-163.912S343.033,213.414,342.769,308.067z"/>
<radialGradient id="SVGID_7_" cx="166.6204" cy="207.1786" r="187.2622" gradientTransform="matrix(1.0039 0.0028 0.0028 -1.0039 3.5258 515.9876)" gradientUnits="userSpaceOnUse">
	<stop  offset="0" style="stop-color:#FFE7A5"/>
	<stop  offset="0.479" style="stop-color:#FFE6A3"/>
	<stop  offset="0.652" style="stop-color:#FFE29C"/>
	<stop  offset="0.775" style="stop-color:#FFDC91"/>
	<stop  offset="0.874" style="stop-color:#FFD380"/>
	<stop  offset="0.958" style="stop-color:#FFC76A"/>
	<stop  offset="1" style="stop-color:#FFBF5C"/>
</radialGradient>
<path style="fill:url(#SVGID_7_);" d="M327.029,308.103c-0.239,85.961-70.104,150.687-156.065,150.448
	C85.004,458.312,15.5,393.198,15.739,307.238c0.239-85.961,70.1-149.098,156.06-148.859S327.268,222.143,327.029,308.103z"/>
<g>
	
		<radialGradient id="SVGID_8_" cx="168.0656" cy="206.3006" r="207.35" gradientTransform="matrix(1.0039 0.0028 0.0028 -1.0039 3.5258 515.9876)" gradientUnits="userSpaceOnUse">
		<stop  offset="0.002" style="stop-color:#FFE7A5"/>
		<stop  offset="0.092" style="stop-color:#FFE09A"/>
		<stop  offset="0.249" style="stop-color:#FFCE7D"/>
		<stop  offset="0.453" style="stop-color:#FFB14E"/>
		<stop  offset="0.634" style="stop-color:#FF931E"/>
		<stop  offset="0.82" style="stop-color:#FF911D"/>
		<stop  offset="0.887" style="stop-color:#FF8A19"/>
		<stop  offset="0.935" style="stop-color:#FF7F13"/>
		<stop  offset="0.974" style="stop-color:#FF6E09"/>
		<stop  offset="1" style="stop-color:#FF5D00"/>
	</radialGradient>
	<path style="fill:url(#SVGID_8_);" d="M71.407,397.726c-5.581-0.016-10.72-2.547-14.102-6.944
		c-13.387-17.406-22.38-38.107-26.01-59.863c-0.866-5.196,0.598-10.487,4.02-14.514c3.444-4.056,8.471-6.373,13.789-6.359
		l100.588,0.28c2.866,0.008,5.422,1.726,6.511,4.377c1.089,2.65,0.48,5.669-1.552,7.69l-70.475,70.085
		C80.759,395.875,76.224,397.74,71.407,397.726C71.408,397.726,71.408,397.726,71.407,397.726z"/>
	
		<radialGradient id="SVGID_9_" cx="168.0656" cy="206.3006" r="207.35" gradientTransform="matrix(1.0039 0.0028 0.0028 -1.0039 3.5258 515.9876)" gradientUnits="userSpaceOnUse">
		<stop  offset="0.002" style="stop-color:#FFE7A5"/>
		<stop  offset="0.092" style="stop-color:#FFE09A"/>
		<stop  offset="0.249" style="stop-color:#FFCE7D"/>
		<stop  offset="0.453" style="stop-color:#FFB14E"/>
		<stop  offset="0.634" style="stop-color:#FF931E"/>
		<stop  offset="0.82" style="stop-color:#FF911D"/>
		<stop  offset="0.887" style="stop-color:#FF8A19"/>
		<stop  offset="0.935" style="stop-color:#FF7F13"/>
		<stop  offset="0.974" style="stop-color:#FF6E09"/>
		<stop  offset="1" style="stop-color:#FF5D00"/>
	</radialGradient>
	<path style="fill:url(#SVGID_9_);" d="M162.421,293.821c-1.87-0.005-3.634-0.747-4.967-2.087l-69.216-69.603
		c-3.862-3.883-5.734-9.234-5.14-14.682c0.589-5.394,3.535-10.161,8.082-13.078c17.404-11.168,36.91-18.368,57.978-21.399
		c0.882-0.126,1.778-0.19,2.663-0.188c9.935,0.028,17.995,8.118,17.968,18.033l-0.267,95.957c-0.005,1.982-0.8,3.809-2.238,5.144
		C165.957,293.15,164.23,293.826,162.421,293.821L162.421,293.821z"/>
	
		<radialGradient id="SVGID_10_" cx="168.0656" cy="206.3006" r="207.35" gradientTransform="matrix(1.0039 0.0028 0.0028 -1.0039 3.5258 515.9876)" gradientUnits="userSpaceOnUse">
		<stop  offset="0.002" style="stop-color:#FFE7A5"/>
		<stop  offset="0.092" style="stop-color:#FFE09A"/>
		<stop  offset="0.249" style="stop-color:#FFCE7D"/>
		<stop  offset="0.453" style="stop-color:#FFB14E"/>
		<stop  offset="0.634" style="stop-color:#FF931E"/>
		<stop  offset="0.82" style="stop-color:#FF911D"/>
		<stop  offset="0.887" style="stop-color:#FF8A19"/>
		<stop  offset="0.935" style="stop-color:#FF7F13"/>
		<stop  offset="0.974" style="stop-color:#FF6E09"/>
		<stop  offset="1" style="stop-color:#FF5D00"/>
	</radialGradient>
	<path style="fill:url(#SVGID_10_);" d="M48.901,306.202c-5.278-0.015-10.264-2.331-13.682-6.356
		c-3.402-4.007-4.874-9.273-4.039-14.449c3.553-22.013,12.614-42.861,26.204-60.292c3.406-4.369,8.556-6.866,14.129-6.85
		c4.818,0.013,9.341,1.902,12.74,5.319l70.476,70.869c2.021,2.032,2.613,5.055,1.509,7.699c-1.104,2.645-3.669,4.349-6.536,4.341
		L48.901,306.202z"/>
	
		<radialGradient id="SVGID_11_" cx="168.0656" cy="206.3006" r="207.35" gradientTransform="matrix(1.0039 0.0028 0.0028 -1.0039 3.5258 515.9876)" gradientUnits="userSpaceOnUse">
		<stop  offset="0.002" style="stop-color:#FFE7A5"/>
		<stop  offset="0.092" style="stop-color:#FFE09A"/>
		<stop  offset="0.249" style="stop-color:#FFCE7D"/>
		<stop  offset="0.453" style="stop-color:#FFB14E"/>
		<stop  offset="0.634" style="stop-color:#FF931E"/>
		<stop  offset="0.82" style="stop-color:#FF911D"/>
		<stop  offset="0.887" style="stop-color:#FF8A19"/>
		<stop  offset="0.935" style="stop-color:#FF7F13"/>
		<stop  offset="0.974" style="stop-color:#FF6E09"/>
		<stop  offset="1" style="stop-color:#FF5D00"/>
	</radialGradient>
	<path style="fill:url(#SVGID_11_);" d="M180.424,293.87c-3.903-0.011-7.071-3.189-7.061-7.086l0.267-95.957
		c0.027-9.916,8.133-17.961,18.068-17.933c0.884,0.002,1.78,0.07,2.662,0.203c21.05,3.148,40.516,10.456,57.858,21.72
		c4.531,2.942,7.449,7.725,8.008,13.122c0.564,5.451-1.338,10.792-5.221,14.653l-69.603,69.216
		C184.063,293.144,182.294,293.876,180.424,293.87L180.424,293.87z"/>
	
		<radialGradient id="SVGID_12_" cx="168.0656" cy="206.3006" r="207.35" gradientTransform="matrix(1.0039 0.0028 0.0028 -1.0039 3.5258 515.9876)" gradientUnits="userSpaceOnUse">
		<stop  offset="0.002" style="stop-color:#FFE7A5"/>
		<stop  offset="0.092" style="stop-color:#FFE09A"/>
		<stop  offset="0.249" style="stop-color:#FFCE7D"/>
		<stop  offset="0.453" style="stop-color:#FFB14E"/>
		<stop  offset="0.634" style="stop-color:#FF931E"/>
		<stop  offset="0.82" style="stop-color:#FF911D"/>
		<stop  offset="0.887" style="stop-color:#FF8A19"/>
		<stop  offset="0.935" style="stop-color:#FF7F13"/>
		<stop  offset="0.974" style="stop-color:#FF6E09"/>
		<stop  offset="1" style="stop-color:#FF5D00"/>
	</radialGradient>
	<path style="fill:url(#SVGID_12_);" d="M151.072,443.996c-0.906-0.003-1.822-0.074-2.723-0.212
		c-20.916-3.206-40.298-10.608-57.609-22.004c-4.499-2.962-7.389-7.746-7.93-13.126c-0.546-5.43,1.358-10.751,5.226-14.596
		l69.325-68.94c1.341-1.333,3.109-2.065,4.979-2.059c3.904,0.011,7.072,3.189,7.061,7.086l-0.267,95.918
		c-0.013,4.851-1.927,9.388-5.387,12.776c-3.411,3.34-7.912,5.173-12.674,5.159C151.073,443.996,151.073,443.996,151.072,443.996z"
		/>
	
		<radialGradient id="SVGID_13_" cx="168.0656" cy="206.3006" r="207.35" gradientTransform="matrix(1.0039 0.0028 0.0028 -1.0039 3.5258 515.9876)" gradientUnits="userSpaceOnUse">
		<stop  offset="0.002" style="stop-color:#FFE7A5"/>
		<stop  offset="0.092" style="stop-color:#FFE09A"/>
		<stop  offset="0.249" style="stop-color:#FFCE7D"/>
		<stop  offset="0.453" style="stop-color:#FFB14E"/>
		<stop  offset="0.634" style="stop-color:#FF931E"/>
		<stop  offset="0.82" style="stop-color:#FF911D"/>
		<stop  offset="0.887" style="stop-color:#FF8A19"/>
		<stop  offset="0.935" style="stop-color:#FF7F13"/>
		<stop  offset="0.974" style="stop-color:#FF6E09"/>
		<stop  offset="1" style="stop-color:#FF5D00"/>
	</radialGradient>
	<path style="fill:url(#SVGID_13_);" d="M190.938,444.107c-9.932-0.028-17.989-8.119-17.961-18.035l0.267-95.918
		c0.011-3.896,3.195-7.058,7.1-7.047c1.87,0.005,3.634,0.747,4.967,2.087l68.94,69.325c3.846,3.867,5.721,9.198,5.145,14.625
		c-0.571,5.377-3.488,10.146-8.003,13.082c-17.373,11.298-36.797,18.594-57.73,21.684
		C192.761,444.043,191.844,444.11,190.938,444.107C190.939,444.107,190.939,444.107,190.938,444.107z"/>
</g>
<radialGradient id="SVGID_14_" cx="168.0656" cy="206.3006" r="207.35" gradientTransform="matrix(1.0039 0.0028 0.0028 -1.0039 3.5258 515.9876)" gradientUnits="userSpaceOnUse">
	<stop  offset="0.002" style="stop-color:#FFE7A5"/>
	<stop  offset="0.092" style="stop-color:#FFE09A"/>
	<stop  offset="0.249" style="stop-color:#FFCE7D"/>
	<stop  offset="0.453" style="stop-color:#FFB14E"/>
	<stop  offset="0.634" style="stop-color:#FF931E"/>
	<stop  offset="0.82" style="stop-color:#FF911D"/>
	<stop  offset="0.887" style="stop-color:#FF8A19"/>
	<stop  offset="0.935" style="stop-color:#FF7F13"/>
	<stop  offset="0.974" style="stop-color:#FF6E09"/>
	<stop  offset="1" style="stop-color:#FF5D00"/>
</radialGradient>
<path style="fill:url(#SVGID_14_);" d="M193.072,306.603c-2.866-0.008-5.422-1.726-6.511-4.377c-1.089-2.65-0.48-5.669,1.552-7.69
	l70.869-70.476c3.417-3.397,7.952-5.262,12.769-5.248c5.573,0.015,10.709,2.541,14.09,6.929
	c13.494,17.505,22.439,38.404,25.869,60.436c0.806,5.181-0.695,10.44-4.119,14.426c-3.44,4.006-8.44,6.295-13.718,6.28
	L193.072,306.603z"/>
<radialGradient id="SVGID_15_" cx="168.0656" cy="206.3006" r="207.35" gradientTransform="matrix(1.0039 0.0028 0.0028 -1.0039 3.5258 515.9876)" gradientUnits="userSpaceOnUse">
	<stop  offset="0.002" style="stop-color:#FFE7A5"/>
	<stop  offset="0.092" style="stop-color:#FFE09A"/>
	<stop  offset="0.249" style="stop-color:#FFCE7D"/>
	<stop  offset="0.453" style="stop-color:#FFB14E"/>
	<stop  offset="0.634" style="stop-color:#FF931E"/>
	<stop  offset="0.82" style="stop-color:#FF911D"/>
	<stop  offset="0.887" style="stop-color:#FF8A19"/>
	<stop  offset="0.935" style="stop-color:#FF7F13"/>
	<stop  offset="0.974" style="stop-color:#FF6E09"/>
	<stop  offset="1" style="stop-color:#FF5D00"/>
</radialGradient>
<path style="fill:url(#SVGID_15_);" d="M270.859,398.28c-4.818-0.013-9.341-1.902-12.74-5.319l-70.085-70.475
	c-2.021-2.032-2.613-5.055-1.509-7.699c1.104-2.645,3.669-4.349,6.536-4.341l100.588,0.28c5.319,0.015,10.331,2.36,13.754,6.435
	c3.398,4.047,4.834,9.345,3.938,14.536c-3.751,21.736-12.859,42.386-26.342,59.717C281.594,395.793,276.439,398.295,270.859,398.28
	C270.859,398.28,270.86,398.28,270.859,398.28z"/>
<linearGradient id="SVGID_16_" gradientUnits="userSpaceOnUse" x1="207.9394" y1="232.224" x2="173.0894" y2="267.264" gradientTransform="matrix(1.0039 0 0 -1.0039 0.1922 516.5607)">
	<stop  offset="0" style="stop-color:#FF931E;stop-opacity:0"/>
	<stop  offset="1" style="stop-color:#FF5D00"/>
</linearGradient>
<path style="fill:url(#SVGID_16_);" d="M198.21,250.668c-0.636-0.736-1.391-1.312-2.273-1.676c-4.91-2.027-11.68,3.084-15.12,11.417
	c-3.03,7.339-2.464,14.723,1.069,17.766l33.996,34.186c0.636,0.736,1.392,1.312,2.273,1.676c4.91,2.027,11.68-3.084,15.12-11.417
	c3.03-7.339,2.464-14.723-1.069-17.766L198.21,250.668z"/>
<linearGradient id="SVGID_17_" gradientUnits="userSpaceOnUse" x1="149.4537" y1="165.6983" x2="103.4137" y2="211.9883" gradientTransform="matrix(1.0039 0 0 -1.0039 0.1922 516.5607)">
	<stop  offset="0" style="stop-color:#FF931E;stop-opacity:0"/>
	<stop  offset="1" style="stop-color:#FF5D00"/>
</linearGradient>
<path style="fill:url(#SVGID_17_);" d="M141.145,319.075c-3.032-3.558-10.44-4.123-17.798-1.066
	c-8.325,3.46-13.42,10.24-11.381,15.145c0.359,0.865,0.927,1.607,1.646,2.236l33.996,34.186c3.032,3.558,10.44,4.124,17.798,1.067
	c8.325-3.46,13.42-10.24,11.381-15.145c-0.359-0.865-0.927-1.608-1.646-2.236L141.145,319.075z"/>
<linearGradient id="SVGID_18_" gradientUnits="userSpaceOnUse" x1="176.1499" y1="139.0545" x2="123.2499" y2="192.2446" gradientTransform="matrix(1.0039 0 0 -1.0039 0.1922 516.5607)">
	<stop  offset="0" style="stop-color:#FF931E;stop-opacity:0"/>
	<stop  offset="1" style="stop-color:#FF5D00"/>
</linearGradient>
<path style="fill:url(#SVGID_18_);" d="M161.558,339.439c-0.636-0.736-1.391-1.312-2.273-1.676
	c-4.91-2.027-11.68,3.084-15.12,11.417c-3.03,7.339-2.464,14.724,1.069,17.766l33.996,34.186c0.636,0.736,1.392,1.312,2.273,1.676
	c4.91,2.027,11.68-3.084,15.12-11.417c3.03-7.339,2.464-14.723-1.069-17.766L161.558,339.439z"/>
<linearGradient id="SVGID_19_" gradientUnits="userSpaceOnUse" x1="241.7437" y1="161.8684" x2="188.1738" y2="215.7384" gradientTransform="matrix(1.0039 0 0 -1.0039 0.1922 516.5607)">
	<stop  offset="0" style="stop-color:#FF931E;stop-opacity:0"/>
	<stop  offset="1" style="stop-color:#FF5D00"/>
</linearGradient>
<path style="fill:url(#SVGID_19_);" d="M227.741,323.417c-2.061-2.156-4.907-4.115-8.302-5.518
	c-8.333-3.44-16.73-2.249-18.757,2.661c-1.289,3.122,0.316,6.994,3.793,10.286l33.996,34.186c2.061,2.156,4.907,4.115,8.303,5.518
	c8.333,3.44,16.73,2.249,18.757-2.661c1.289-3.122-0.316-6.994-3.793-10.286L227.741,323.417z"/>
<linearGradient id="SVGID_20_" gradientUnits="userSpaceOnUse" x1="151.0815" y1="200.6261" x2="108.8515" y2="243.0961" gradientTransform="matrix(1.0039 0 0 -1.0039 0.1922 516.5607)">
	<stop  offset="0" style="stop-color:#FF931E;stop-opacity:0"/>
	<stop  offset="1" style="stop-color:#FF5D00"/>
</linearGradient>
<path style="fill:url(#SVGID_20_);" d="M138.971,286.765c-2.061-2.156-4.907-4.115-8.303-5.518
	c-8.333-3.44-16.73-2.249-18.758,2.661c-1.289,3.122,0.316,6.994,3.794,10.286c0,0,33.758,33.961,33.996,34.186
	c2.061,2.156,4.907,4.115,8.303,5.518c8.333,3.44,16.73,2.249,18.757-2.661c1.289-3.122-0.316-6.994-3.794-10.286L138.971,286.765z"
	/>
<linearGradient id="SVGID_21_" gradientUnits="userSpaceOnUse" x1="241.5732" y1="198.6078" x2="191.0532" y2="249.4077" gradientTransform="matrix(1.0039 0 0 -1.0039 0.1922 516.5607)">
	<stop  offset="0" style="stop-color:#FF931E;stop-opacity:0"/>
	<stop  offset="1" style="stop-color:#FF5D00"/>
</linearGradient>
<path style="fill:url(#SVGID_21_);" d="M229.832,282.222c-3.032-3.558-10.44-4.123-17.798-1.066
	c-8.325,3.46-13.42,10.24-11.381,15.145c0.359,0.865,0.927,1.607,1.646,2.236l33.997,34.186c3.032,3.558,10.44,4.124,17.798,1.066
	c8.325-3.46,13.42-10.24,11.381-15.145c-0.359-0.865-0.927-1.607-1.646-2.236L229.832,282.222z"/>
<linearGradient id="SVGID_22_" gradientUnits="userSpaceOnUse" x1="209.9934" y1="141.878" x2="167.7534" y2="184.358" gradientTransform="matrix(1.0039 0 0 -1.0039 0.1922 516.5607)">
	<stop  offset="0" style="stop-color:#FF931E;stop-opacity:0"/>
	<stop  offset="1" style="stop-color:#FF5D00"/>
</linearGradient>
<path style="fill:url(#SVGID_22_);" d="M193.911,341.583c-3.315-3.522-7.223-5.154-10.365-3.848
	c-4.905,2.038-6.078,10.439-2.619,18.763c1.393,3.352,3.329,6.167,5.46,8.218l33.996,34.186c3.315,3.523,7.224,5.154,10.367,3.848
	c4.905-2.038,6.078-10.439,2.619-18.763c-1.393-3.352-3.329-6.167-5.459-8.218L193.911,341.583z"/>
<linearGradient id="SVGID_23_" gradientUnits="userSpaceOnUse" x1="176.5203" y1="226.9649" x2="133.7203" y2="269.9949" gradientTransform="matrix(1.0039 0 0 -1.0039 0.1922 516.5607)">
	<stop  offset="0" style="stop-color:#FF931E;stop-opacity:0"/>
	<stop  offset="1" style="stop-color:#FF5D00"/>
</linearGradient>
<path style="fill:url(#SVGID_23_);" d="M157.058,252.897c-3.315-3.523-7.224-5.154-10.366-3.848
	c-4.905,2.038-6.078,10.439-2.619,18.763c1.393,3.353,3.329,6.168,5.46,8.218l33.996,34.186c3.315,3.522,7.223,5.154,10.365,3.848
	c4.905-2.038,6.078-10.439,2.619-18.763c-1.393-3.352-3.329-6.167-5.459-8.217L157.058,252.897z"/>
<linearGradient id="SVGID_24_" gradientUnits="userSpaceOnUse" x1="186.1177" y1="252.5915" x2="201.2877" y2="246.3315" gradientTransform="matrix(1.0039 0 0 -1.0039 0.1922 516.5607)">
	<stop  offset="0" style="stop-color:#FFE7A5"/>
	<stop  offset="0.056" style="stop-color:#FFE5A1"/>
	<stop  offset="1" style="stop-color:#FFBF5C"/>
</linearGradient>
<path style="fill:url(#SVGID_24_);" d="M198.598,267.75c-3.44,8.333-10.21,13.444-15.12,11.417s-6.102-10.426-2.661-18.757
	c3.44-8.333,10.21-13.444,15.12-11.417C200.847,251.019,202.039,259.418,198.598,267.75z"/>
<linearGradient id="SVGID_25_" gradientUnits="userSpaceOnUse" x1="149.6072" y1="164.1704" x2="164.7772" y2="157.9004" gradientTransform="matrix(1.0039 0 0 -1.0039 0.1922 516.5607)">
	<stop  offset="0" style="stop-color:#FFE7A5"/>
	<stop  offset="0.056" style="stop-color:#FFE5A1"/>
	<stop  offset="1" style="stop-color:#FFBF5C"/>
</linearGradient>
<path style="fill:url(#SVGID_25_);" d="M161.946,356.521c-3.44,8.333-10.21,13.444-15.12,11.417s-6.102-10.426-2.661-18.758
	c3.44-8.333,10.21-13.444,15.12-11.417C164.195,339.789,165.387,348.188,161.946,356.521z"/>
<g>
	
		<linearGradient id="SVGID_26_" gradientUnits="userSpaceOnUse" x1="215.8011" y1="191.6182" x2="209.5411" y2="176.4382" gradientTransform="matrix(1.0039 0 0 -1.0039 0.1922 516.5607)">
		<stop  offset="0" style="stop-color:#FFE7A5"/>
		<stop  offset="0.056" style="stop-color:#FFE5A1"/>
		<stop  offset="1" style="stop-color:#FFBF5C"/>
	</linearGradient>
	<path style="fill:url(#SVGID_26_);" d="M212.097,335.681c-8.333-3.44-13.444-10.21-11.417-15.12
		c2.027-4.91,10.426-6.102,18.757-2.661c8.333,3.44,13.444,10.21,11.417,15.12C228.828,337.93,220.429,339.122,212.097,335.681z"/>
	
		<linearGradient id="SVGID_27_" gradientUnits="userSpaceOnUse" x1="127.3614" y1="228.0894" x2="121.1014" y2="212.9094" gradientTransform="matrix(1.0039 0 0 -1.0039 0.1922 516.5607)">
		<stop  offset="0" style="stop-color:#FFE7A5"/>
		<stop  offset="0.056" style="stop-color:#FFE5A1"/>
		<stop  offset="1" style="stop-color:#FFBF5C"/>
	</linearGradient>
	<path style="fill:url(#SVGID_27_);" d="M123.326,299.029c-8.333-3.44-13.444-10.21-11.417-15.12
		c2.027-4.91,10.426-6.102,18.757-2.661c8.333,3.44,13.444,10.21,11.417,15.12C140.057,301.278,131.658,302.469,123.326,299.029z"/>
</g>
<linearGradient id="SVGID_28_" gradientUnits="userSpaceOnUse" x1="213.5979" y1="228.2695" x2="219.8979" y2="213.1095" gradientTransform="matrix(1.0039 0 0 -1.0039 0.1922 516.5607)">
	<stop  offset="0" style="stop-color:#FFE7A5"/>
	<stop  offset="0.056" style="stop-color:#FFE5A1"/>
	<stop  offset="1" style="stop-color:#FFBF5C"/>
</linearGradient>
<path style="fill:url(#SVGID_28_);" d="M219.417,298.921c-8.325,3.46-16.725,2.287-18.763-2.619
	c-2.038-4.905,3.057-11.687,11.381-15.145c8.325-3.46,16.725-2.287,18.763,2.619C232.837,288.681,227.741,295.461,219.417,298.921z"
	/>
<linearGradient id="SVGID_29_" gradientUnits="userSpaceOnUse" x1="125.2574" y1="191.5593" x2="131.5574" y2="176.3993" gradientTransform="matrix(1.0039 0 0 -1.0039 0.1922 516.5607)">
	<stop  offset="0" style="stop-color:#FFE7A5"/>
	<stop  offset="0.056" style="stop-color:#FFE5A1"/>
	<stop  offset="1" style="stop-color:#FFBF5C"/>
</linearGradient>
<path style="fill:url(#SVGID_29_);" d="M130.729,335.774c-8.325,3.46-16.725,2.287-18.763-2.619
	c-2.038-4.905,3.057-11.687,11.381-15.145c8.325-3.46,16.725-2.287,18.763,2.619C144.15,325.534,139.054,332.314,130.729,335.774z"
	/>
<g>
	
		<linearGradient id="SVGID_30_" gradientUnits="userSpaceOnUse" x1="191.5768" y1="164.2349" x2="176.4168" y2="157.9349" gradientTransform="matrix(1.0039 0 0 -1.0039 0.1922 516.5607)">
		<stop  offset="0" style="stop-color:#FFE7A5"/>
		<stop  offset="0.056" style="stop-color:#FFE5A1"/>
		<stop  offset="1" style="stop-color:#FFBF5C"/>
	</linearGradient>
	<path style="fill:url(#SVGID_30_);" d="M180.926,356.5c-3.46-8.325-2.287-16.725,2.619-18.763s11.687,3.057,15.145,11.381
		c3.46,8.325,2.287,16.725-2.619,18.763C191.166,369.92,184.386,364.824,180.926,356.5z"/>
	
		<linearGradient id="SVGID_31_" gradientUnits="userSpaceOnUse" x1="154.8656" y1="252.575" x2="139.7056" y2="246.275" gradientTransform="matrix(1.0039 0 0 -1.0039 0.1922 516.5607)">
		<stop  offset="0" style="stop-color:#FFE7A5"/>
		<stop  offset="0.056" style="stop-color:#FFE5A1"/>
		<stop  offset="1" style="stop-color:#FFBF5C"/>
	</linearGradient>
	<path style="fill:url(#SVGID_31_);" d="M144.073,267.812c-3.46-8.325-2.287-16.725,2.619-18.763
		c4.905-2.038,11.687,3.057,15.145,11.381c3.46,8.325,2.287,16.725-2.619,18.763C154.313,281.233,147.533,276.137,144.073,267.812z"
		/>
</g>
<linearGradient id="SVGID_32_" gradientUnits="userSpaceOnUse" x1="245.1575" y1="318.8827" x2="217.6575" y2="427.4627" gradientTransform="matrix(1.0039 0 0 -1.0039 0.1922 516.5607)">
	<stop  offset="0" style="stop-color:#FF931E;stop-opacity:0"/>
	<stop  offset="1" style="stop-color:#FF5D00"/>
</linearGradient>
<path style="fill:url(#SVGID_32_);" d="M171.842,143.201c-4.219-0.012-8.403,0.121-12.547,0.383l182.478,182.478
	c0.638-5.893,0.98-11.894,0.996-17.995c0.044-15.86-2.078-31.021-6.07-45.282l-111.72-111.721
	C208.255,145.994,190.399,143.253,171.842,143.201z"/>
<g>
	<circle style="fill:#FF5D00;" cx="450.309" cy="232.267" r="10.193"/>
	<circle style="fill:#FF5D00;" cx="431.294" cy="232.267" r="5.096"/>
	<circle style="fill:#FF5D00;" cx="437.198" cy="144.414" r="5.096"/>
	<circle style="fill:#FF5D00;" cx="404.148" cy="130.249" r="5.096"/>
	<circle style="fill:#FF5D00;" cx="412.541" cy="157.525" r="5.096"/>
</g>
<g>
</g>
<g>
</g>
<g>
</g>
<g>
</g>
<g>
</g>
<g>
</g>
<g>
</g>
<g>
</g>
<g>
</g>
<g>
</g>
<g>
</g>
<g>
</g>
<g>
</g>
<g>
</g>
<g>
</g>
</svg>
